# xmcd
#
# Track frame offsets:
#	150
#	27917
#	48245
#	62746
#	87647
#	113195
#	130978
#	166610
#	184857
#	223663
#
# Disc length: 3352 seconds
#
# Revision: 0
# Processed by: cddbd v1.5.2PL0 Copyright (c) Steve Scherf et al.
# Submitted via: EasyCDDAExtractor 9.0.0.1
#
DISCID=890d160a
DTITLE=Deep Purple - Nottingham Arena Nottingham 24-04-07 Master Disc 1
DYEAR=2007
DGENRE=Hard Rock
TTITLE0=Pictures Of Home
TTITLE1=Things I Never Said
TTITLE2=Into The Fire
TTITLE3=Strange Kind Of Woman
TTITLE4=Raptures Of The Deep
TTITLE5=Firebal
TTITLE6=Steve Solo and The Well Dressed Guitar
TTITLE7=When A Blind Man Cries
TTITLE8=Lazy
TTITLE9=The Battle Rage On
EXTD=
EXTT0=
EXTT1=
EXTT2=
EXTT3=
EXTT4=
EXTT5=
EXTT6=
EXTT7=
EXTT8=
EXTT9=
PLAYORDER=
